<mxfile host="app.diagrams.net" modified="2023-09-05T12:11:03.619Z" agent="Mozilla/5.0 (Windows NT 10.0; Win64; x64) AppleWebKit/537.36 (KHTML, like Gecko) Chrome/116.0.0.0 Safari/537.36" etag="6ZhUE83FFAxU-l88cJfL" version="21.7.2" type="device">
  <diagram name="Page-1" id="7e0a89b8-554c-2b80-1dc8-d5c74ca68de4">
    <mxGraphModel dx="2088" dy="2057" grid="1" gridSize="10" guides="1" tooltips="1" connect="1" arrows="1" fold="1" page="1" pageScale="1" pageWidth="1100" pageHeight="850" background="none" math="0" shadow="0">
      <root>
        <mxCell id="0" />
        <mxCell id="1" parent="0" />
        <mxCell id="rkzSsL9GuXkNJ8bbdJ2s-2" value="&lt;p style=&quot;line-height: 100%;&quot;&gt;&lt;font style=&quot;font-size: 20px;&quot;&gt;M&lt;/font&gt;&lt;/p&gt;" style="dashed=0;outlineConnect=0;align=center;html=1;shape=mxgraph.pid.engines.electric_motor;fontSize=45;" parent="1" vertex="1">
          <mxGeometry x="140" y="-810" width="30" height="30" as="geometry" />
        </mxCell>
        <mxCell id="rkzSsL9GuXkNJ8bbdJ2s-3" value="" style="rounded=0;whiteSpace=wrap;html=1;" parent="1" vertex="1">
          <mxGeometry x="50" y="-710" width="120" height="60" as="geometry" />
        </mxCell>
        <mxCell id="rkzSsL9GuXkNJ8bbdJ2s-4" value="" style="endArrow=none;html=1;rounded=0;entryX=0;entryY=0.5;entryDx=0;entryDy=0;entryPerimeter=0;exitX=0.75;exitY=0;exitDx=0;exitDy=0;" parent="1" source="rkzSsL9GuXkNJ8bbdJ2s-3" target="rkzSsL9GuXkNJ8bbdJ2s-2" edge="1">
          <mxGeometry width="50" height="50" relative="1" as="geometry">
            <mxPoint x="500" y="-510" as="sourcePoint" />
            <mxPoint x="550" y="-560" as="targetPoint" />
          </mxGeometry>
        </mxCell>
        <mxCell id="rkzSsL9GuXkNJ8bbdJ2s-5" value="" style="endArrow=none;html=1;rounded=0;exitX=1;exitY=0;exitDx=0;exitDy=0;entryX=1;entryY=0.5;entryDx=0;entryDy=0;entryPerimeter=0;" parent="1" source="rkzSsL9GuXkNJ8bbdJ2s-3" target="rkzSsL9GuXkNJ8bbdJ2s-2" edge="1">
          <mxGeometry width="50" height="50" relative="1" as="geometry">
            <mxPoint x="500" y="-510" as="sourcePoint" />
            <mxPoint x="550" y="-560" as="targetPoint" />
          </mxGeometry>
        </mxCell>
        <mxCell id="rkzSsL9GuXkNJ8bbdJ2s-6" value="Punte H 1&amp;nbsp;" style="text;html=1;strokeColor=none;fillColor=none;align=center;verticalAlign=middle;whiteSpace=wrap;rounded=0;" parent="1" vertex="1">
          <mxGeometry x="80" y="-695" width="60" height="30" as="geometry" />
        </mxCell>
        <mxCell id="rkzSsL9GuXkNJ8bbdJ2s-10" value="" style="verticalLabelPosition=bottom;shadow=0;dashed=0;align=center;html=1;verticalAlign=top;shape=mxgraph.electrical.transmission.4_line_bus;direction=south;" parent="1" vertex="1">
          <mxGeometry x="72.5" y="-650" width="75" height="130" as="geometry" />
        </mxCell>
        <mxCell id="rkzSsL9GuXkNJ8bbdJ2s-12" value="" style="endArrow=none;html=1;rounded=0;exitX=0;exitY=0;exitDx=0;exitDy=0;" parent="1" source="rkzSsL9GuXkNJ8bbdJ2s-3" edge="1" target="W9Nz29GqdjR4zsIZ0ti_-3">
          <mxGeometry width="50" height="50" relative="1" as="geometry">
            <mxPoint x="170" y="-680" as="sourcePoint" />
            <mxPoint x="50" y="-760" as="targetPoint" />
          </mxGeometry>
        </mxCell>
        <mxCell id="W9Nz29GqdjR4zsIZ0ti_-1" value="" style="endArrow=none;html=1;rounded=0;exitX=0.25;exitY=0;exitDx=0;exitDy=0;" edge="1" parent="1" source="rkzSsL9GuXkNJ8bbdJ2s-3" target="W9Nz29GqdjR4zsIZ0ti_-4">
          <mxGeometry width="50" height="50" relative="1" as="geometry">
            <mxPoint x="520" y="-710" as="sourcePoint" />
            <mxPoint x="80" y="-760" as="targetPoint" />
          </mxGeometry>
        </mxCell>
        <mxCell id="W9Nz29GqdjR4zsIZ0ti_-3" value="GND" style="text;html=1;align=center;verticalAlign=middle;resizable=0;points=[];autosize=1;strokeColor=none;fillColor=none;" vertex="1" parent="1">
          <mxGeometry x="22.5" y="-792" width="50" height="30" as="geometry" />
        </mxCell>
        <mxCell id="W9Nz29GqdjR4zsIZ0ti_-4" value="12V" style="text;html=1;align=center;verticalAlign=middle;resizable=0;points=[];autosize=1;strokeColor=none;fillColor=none;" vertex="1" parent="1">
          <mxGeometry x="60" y="-792" width="40" height="30" as="geometry" />
        </mxCell>
        <mxCell id="W9Nz29GqdjR4zsIZ0ti_-5" value="Text" style="text;html=1;align=center;verticalAlign=middle;resizable=0;points=[];autosize=1;strokeColor=none;fillColor=none;" vertex="1" parent="1">
          <mxGeometry x="45" y="-532" width="50" height="30" as="geometry" />
        </mxCell>
        <mxCell id="W9Nz29GqdjR4zsIZ0ti_-6" value="" style="endArrow=none;html=1;rounded=0;exitX=0;exitY=0.75;exitDx=0;exitDy=0;" edge="1" parent="1" source="rkzSsL9GuXkNJ8bbdJ2s-3">
          <mxGeometry width="50" height="50" relative="1" as="geometry">
            <mxPoint x="520" y="-710" as="sourcePoint" />
            <mxPoint x="20" y="-665" as="targetPoint" />
          </mxGeometry>
        </mxCell>
        <mxCell id="W9Nz29GqdjR4zsIZ0ti_-7" value="" style="endArrow=none;html=1;rounded=0;exitX=0;exitY=0.5;exitDx=0;exitDy=0;" edge="1" parent="1" source="rkzSsL9GuXkNJ8bbdJ2s-3">
          <mxGeometry width="50" height="50" relative="1" as="geometry">
            <mxPoint x="60" y="-655" as="sourcePoint" />
            <mxPoint x="20" y="-680" as="targetPoint" />
          </mxGeometry>
        </mxCell>
        <mxCell id="W9Nz29GqdjR4zsIZ0ti_-8" value="GND" style="text;html=1;align=center;verticalAlign=middle;resizable=0;points=[];autosize=1;strokeColor=none;fillColor=none;" vertex="1" parent="1">
          <mxGeometry x="-5" y="-702" width="50" height="30" as="geometry" />
        </mxCell>
        <mxCell id="W9Nz29GqdjR4zsIZ0ti_-9" value="5V" style="text;html=1;align=center;verticalAlign=middle;resizable=0;points=[];autosize=1;strokeColor=none;fillColor=none;" vertex="1" parent="1">
          <mxGeometry x="-5" y="-672" width="40" height="30" as="geometry" />
        </mxCell>
      </root>
    </mxGraphModel>
  </diagram>
</mxfile>
